<svg xmlns="http://www.w3.org/2000/svg" width="900" height="1080" viewBox="0 0 900 1080" role="img" aria-labelledby="title desc">
  <title id="title">Current production module dependencies</title><desc id="desc">Each production module is paired with the other top-level modules imported by its Java source. The view exposes reverse common coupling and broad documentation and financial dependencies.</desc>
  <defs><style>.bg{fill:#fff}.row{fill:#f8fafc;stroke:#cbd5e1;stroke-width:1.5}.name{fill:#eff6ff;stroke:#2563eb;stroke-width:2}.t{font:700 30px "Segoe UI",Arial;fill:#0f172a}.h{font:700 18px "Segoe UI",Arial;fill:#0f172a}.b{font:400 16px "Segoe UI",Arial;fill:#334155}.s{font:600 14px "Segoe UI",Arial;fill:#475569}.warn{fill:#fff7ed;stroke:#ea580c;stroke-width:1.5}</style></defs>
  <rect class="bg" width="900" height="1080"/><text class="t" x="450" y="46" text-anchor="middle">Current module dependencies</text><text class="s" x="450" y="74" text-anchor="middle">Derived from production imports · descriptive, not idealized</text>
  <text class="h" x="75" y="116">Module</text><text class="h" x="310" y="116">Directly imports</text>
  <g transform="translate(55 140)"><rect class="row" width="790" height="72" rx="8"/><rect class="name" x="15" y="12" width="190" height="48" rx="8"/><text class="h" x="110" y="43" text-anchor="middle">audit</text><text class="b" x="235" y="43">common</text></g>
  <g transform="translate(55 220)"><rect class="row" width="790" height="72" rx="8"/><rect class="name" x="15" y="12" width="190" height="48" rx="8"/><text class="h" x="110" y="43" text-anchor="middle">classification</text><text class="b" x="235" y="43">common · security</text></g>
  <g transform="translate(55 300)"><rect class="warn" width="790" height="72" rx="8"/><rect class="name" x="15" y="12" width="190" height="48" rx="8"/><text class="h" x="110" y="43" text-anchor="middle">common</text><text class="b" x="235" y="34">identity · security</text><text class="s" x="235" y="56">reverse coupling retained as current reality</text></g>
  <g transform="translate(55 380)"><rect class="row" width="790" height="94" rx="8"/><rect class="name" x="15" y="23" width="190" height="48" rx="8"/><text class="h" x="110" y="54" text-anchor="middle">documentation</text><text class="b" x="235" y="36">classification · common · financial · governance · identity</text><text class="b" x="235" y="64">marketplace · notification · participation · security</text></g>
  <g transform="translate(55 482)"><rect class="warn" width="790" height="94" rx="8"/><rect class="name" x="15" y="23" width="190" height="48" rx="8"/><text class="h" x="110" y="54" text-anchor="middle">financial</text><text class="b" x="235" y="36">audit · common · governance · identity</text><text class="b" x="235" y="64">marketplace · participation · security</text></g>
  <g transform="translate(55 584)"><rect class="row" width="790" height="72" rx="8"/><rect class="name" x="15" y="12" width="190" height="48" rx="8"/><text class="h" x="110" y="43" text-anchor="middle">governance</text><text class="b" x="235" y="43">classification · common · identity · participation · security</text></g>
  <g transform="translate(55 664)"><rect class="row" width="790" height="72" rx="8"/><rect class="name" x="15" y="12" width="190" height="48" rx="8"/><text class="h" x="110" y="43" text-anchor="middle">identity</text><text class="b" x="235" y="43">common</text></g>
  <g transform="translate(55 744)"><rect class="row" width="790" height="72" rx="8"/><rect class="name" x="15" y="12" width="190" height="48" rx="8"/><text class="h" x="110" y="43" text-anchor="middle">marketplace</text><text class="b" x="235" y="43">classification · common · governance · identity · participation · security</text></g>
  <g transform="translate(55 824)"><rect class="row" width="790" height="72" rx="8"/><rect class="name" x="15" y="12" width="190" height="48" rx="8"/><text class="h" x="110" y="43" text-anchor="middle">notification</text><text class="b" x="235" y="43">common · security</text></g>
  <g transform="translate(55 904)"><rect class="row" width="790" height="72" rx="8"/><rect class="name" x="15" y="12" width="190" height="48" rx="8"/><text class="h" x="110" y="43" text-anchor="middle">participation</text><text class="b" x="235" y="43">classification · common · identity · security</text></g>
  <g transform="translate(55 984)"><rect class="row" width="790" height="72" rx="8"/><rect class="name" x="15" y="12" width="190" height="48" rx="8"/><text class="h" x="110" y="43" text-anchor="middle">security</text><text class="b" x="235" y="43">audit · common · identity · participation</text></g>
</svg>
